<svg xmlns="http://www.w3.org/2000/svg" xmlns:xlink="http://www.w3.org/1999/xlink" contentStyleType="text/css" data-diagram-type="CLASS" height="616px" preserveAspectRatio="none" style="width:823px;height:616px;background:#FFFFFF;" version="1.1" viewBox="0 0 823 616" width="823px" zoomAndPan="magnify"><defs/><g><!--class User--><g class="entity" data-entity="User" data-source-line="1" data-uid="ent0002" id="entity_User"><rect fill="#F1F1F1" height="129.4844" rx="2.5" ry="2.5" style="stroke:#181818;stroke-width:0.5;" width="143.6602" x="228.1" y="197.18"/><ellipse cx="279.725" cy="213.18" fill="#ADD1B2" rx="11" ry="11" style="stroke:#181818;stroke-width:1;"/><path d="M282.6938,218.8206 Q282.1156,219.1175 281.475,219.2581 Q280.8344,219.4144 280.1313,219.4144 Q277.6313,219.4144 276.3031,217.7737 Q274.9906,216.1175 274.9906,212.9925 Q274.9906,209.8675 276.3031,208.2112 Q277.6313,206.555 280.1313,206.555 Q280.8344,206.555 281.475,206.7112 Q282.1313,206.8675 282.6938,207.1644 L282.6938,209.8831 Q282.0688,209.305 281.475,209.0394 Q280.8813,208.7581 280.2563,208.7581 Q278.9125,208.7581 278.225,209.8362 Q277.5375,210.8987 277.5375,212.9925 Q277.5375,215.0862 278.225,216.1644 Q278.9125,217.2269 280.2563,217.2269 Q280.8813,217.2269 281.475,216.9612 Q282.0688,216.68 282.6938,216.1019 L282.6938,218.8206 Z " fill="#000000"/><text fill="#000000" font-family="sans-serif" font-size="14" lengthAdjust="spacing" textLength="31.9102" x="300.225" y="218.0267">User</text><line style="stroke:#181818;stroke-width:0.5;" x1="229.1" x2="370.7602" y1="229.18" y2="229.18"/><ellipse cx="239.1" cy="242.8284" fill="none" rx="3" ry="3" style="stroke:#038048;stroke-width:1;"/><text fill="#000000" font-family="sans-serif" font-size="14" lengthAdjust="spacing" textLength="57.3467" x="248.1" y="246.1751">id: UUID</text><ellipse cx="239.1" cy="259.1253" fill="none" rx="3" ry="3" style="stroke:#038048;stroke-width:1;"/><text fill="#000000" font-family="sans-serif" font-size="14" lengthAdjust="spacing" textLength="90.6514" x="248.1" y="262.472">name: String</text><ellipse cx="239.1" cy="275.4222" fill="none" rx="3" ry="3" style="stroke:#038048;stroke-width:1;"/><text fill="#000000" font-family="sans-serif" font-size="14" lengthAdjust="spacing" textLength="89.5576" x="248.1" y="278.7689">email: String</text><ellipse cx="239.1" cy="291.7191" fill="none" rx="3" ry="3" style="stroke:#038048;stroke-width:1;"/><text fill="#000000" font-family="sans-serif" font-size="14" lengthAdjust="spacing" textLength="117.6602" x="248.1" y="295.0657">password: String</text><line style="stroke:#181818;stroke-width:0.5;" x1="229.1" x2="370.7602" y1="302.3675" y2="302.3675"/><ellipse cx="239.1" cy="316.0159" fill="#84BE84" rx="3" ry="3" style="stroke:#038048;stroke-width:1;"/><text fill="#000000" font-family="sans-serif" font-size="14" lengthAdjust="spacing" textLength="83.8223" x="248.1" y="319.3626">login(): void</text></g><!--class Admin--><g class="entity" data-entity="Admin" data-source-line="9" data-uid="ent0003" id="entity_Admin"><rect fill="#F1F1F1" height="80.5938" rx="2.5" ry="2.5" style="stroke:#181818;stroke-width:0.5;" width="239.8555" x="7" y="387.67"/><ellipse cx="100.2456" cy="403.67" fill="#ADD1B2" rx="11" ry="11" style="stroke:#181818;stroke-width:1;"/><path d="M103.2144,409.3106 Q102.6362,409.6075 101.9956,409.7481 Q101.355,409.9044 100.6519,409.9044 Q98.1519,409.9044 96.8237,408.2637 Q95.5112,406.6075 95.5112,403.4825 Q95.5112,400.3575 96.8237,398.7012 Q98.1519,397.045 100.6519,397.045 Q101.355,397.045 101.9956,397.2012 Q102.6519,397.3575 103.2144,397.6544 L103.2144,400.3731 Q102.5894,399.795 101.9956,399.5294 Q101.4019,399.2481 100.7769,399.2481 Q99.4331,399.2481 98.7456,400.3262 Q98.0581,401.3887 98.0581,403.4825 Q98.0581,405.5762 98.7456,406.6544 Q99.4331,407.7169 100.7769,407.7169 Q101.4019,407.7169 101.9956,407.4512 Q102.5894,407.17 103.2144,406.5919 L103.2144,409.3106 Z " fill="#000000"/><text fill="#000000" font-family="sans-serif" font-size="14" lengthAdjust="spacing" textLength="44.8643" x="120.7456" y="408.5167">Admin</text><line style="stroke:#181818;stroke-width:0.5;" x1="8" x2="245.8555" y1="419.67" y2="419.67"/><line style="stroke:#181818;stroke-width:0.5;" x1="8" x2="245.8555" y1="427.67" y2="427.67"/><ellipse cx="18" cy="441.3184" fill="#84BE84" rx="3" ry="3" style="stroke:#038048;stroke-width:1;"/><text fill="#000000" font-family="sans-serif" font-size="14" lengthAdjust="spacing" textLength="197.9893" x="27" y="444.6651">createUser(user: User): void</text><ellipse cx="18" cy="457.6153" fill="#84BE84" rx="3" ry="3" style="stroke:#038048;stroke-width:1;"/><text fill="#000000" font-family="sans-serif" font-size="14" lengthAdjust="spacing" textLength="213.8555" x="27" y="460.962">deleteUser(userId: UUID): void</text></g><!--class Editor--><g class="entity" data-entity="Editor" data-source-line="14" data-uid="ent0004" id="entity_Editor"><rect fill="#F1F1F1" height="64.2969" rx="2.5" ry="2.5" style="stroke:#181818;stroke-width:0.5;" width="307.0117" x="59.42" y="545.26"/><ellipse cx="187.9596" cy="561.26" fill="#ADD1B2" rx="11" ry="11" style="stroke:#181818;stroke-width:1;"/><path d="M190.9283,566.9006 Q190.3502,567.1975 189.7096,567.3381 Q189.0689,567.4944 188.3658,567.4944 Q185.8658,567.4944 184.5377,565.8538 Q183.2252,564.1975 183.2252,561.0725 Q183.2252,557.9475 184.5377,556.2913 Q185.8658,554.635 188.3658,554.635 Q189.0689,554.635 189.7096,554.7913 Q190.3658,554.9475 190.9283,555.2444 L190.9283,557.9631 Q190.3033,557.385 189.7096,557.1194 Q189.1158,556.8381 188.4908,556.8381 Q187.1471,556.8381 186.4596,557.9163 Q185.7721,558.9788 185.7721,561.0725 Q185.7721,563.1663 186.4596,564.2444 Q187.1471,565.3069 188.4908,565.3069 Q189.1158,565.3069 189.7096,565.0413 Q190.3033,564.76 190.9283,564.1819 L190.9283,566.9006 Z " fill="#000000"/><text fill="#000000" font-family="sans-serif" font-size="14" lengthAdjust="spacing" textLength="41.4326" x="208.4596" y="566.1067">Editor</text><line style="stroke:#181818;stroke-width:0.5;" x1="60.42" x2="365.4317" y1="577.26" y2="577.26"/><line style="stroke:#181818;stroke-width:0.5;" x1="60.42" x2="365.4317" y1="585.26" y2="585.26"/><ellipse cx="70.42" cy="598.9084" fill="#84BE84" rx="3" ry="3" style="stroke:#038048;stroke-width:1;"/><text fill="#000000" font-family="sans-serif" font-size="14" lengthAdjust="spacing" textLength="281.0117" x="79.42" y="602.2551">manageContent(content: Content): void</text></g><!--class CMS_System--><g class="entity" data-entity="CMS_System" data-source-line="18" data-uid="ent0005" id="entity_CMS_System"><rect fill="#F1F1F1" height="113.1875" rx="2.5" ry="2.5" style="stroke:#181818;stroke-width:0.5;" width="415.0879" x="247.38" y="7"/><ellipse cx="405.7003" cy="23" fill="#ADD1B2" rx="11" ry="11" style="stroke:#181818;stroke-width:1;"/><path d="M408.6691,28.6406 Q408.0909,28.9375 407.4503,29.0781 Q406.8097,29.2344 406.1066,29.2344 Q403.6066,29.2344 402.2784,27.5938 Q400.9659,25.9375 400.9659,22.8125 Q400.9659,19.6875 402.2784,18.0313 Q403.6066,16.375 406.1066,16.375 Q406.8097,16.375 407.4503,16.5313 Q408.1066,16.6875 408.6691,16.9844 L408.6691,19.7031 Q408.0441,19.125 407.4503,18.8594 Q406.8566,18.5781 406.2316,18.5781 Q404.8878,18.5781 404.2003,19.6563 Q403.5128,20.7188 403.5128,22.8125 Q403.5128,24.9063 404.2003,25.9844 Q404.8878,27.0469 406.2316,27.0469 Q406.8566,27.0469 407.4503,26.7813 Q408.0441,26.5 408.6691,25.9219 L408.6691,28.6406 Z " fill="#000000"/><text fill="#000000" font-family="sans-serif" font-size="14" lengthAdjust="spacing" textLength="89.9473" x="426.2003" y="27.8467">CMS_System</text><line style="stroke:#181818;stroke-width:0.5;" x1="248.38" x2="661.4679" y1="39" y2="39"/><line style="stroke:#181818;stroke-width:0.5;" x1="248.38" x2="661.4679" y1="47" y2="47"/><ellipse cx="258.38" cy="60.6484" fill="#84BE84" rx="3" ry="3" style="stroke:#038048;stroke-width:1;"/><text fill="#000000" font-family="sans-serif" font-size="14" lengthAdjust="spacing" textLength="389.0879" x="267.38" y="63.9951">authenticateUser(email: String, password: String): User</text><ellipse cx="258.38" cy="76.9453" fill="#84BE84" rx="3" ry="3" style="stroke:#038048;stroke-width:1;"/><text fill="#000000" font-family="sans-serif" font-size="14" lengthAdjust="spacing" textLength="259.5605" x="267.38" y="80.292">storeContent(content: Content): void</text><ellipse cx="258.38" cy="93.2422" fill="#84BE84" rx="3" ry="3" style="stroke:#038048;stroke-width:1;"/><text fill="#000000" font-family="sans-serif" font-size="14" lengthAdjust="spacing" textLength="361.1084" x="267.38" y="96.5889">updateContent(contentId: UUID, data: Object): void</text><ellipse cx="258.38" cy="109.5391" fill="#84BE84" rx="3" ry="3" style="stroke:#038048;stroke-width:1;"/><text fill="#000000" font-family="sans-serif" font-size="14" lengthAdjust="spacing" textLength="260.6885" x="267.38" y="112.8857">deleteContent(contentId: UUID): void</text></g><!--class Content--><g class="entity" data-entity="Content" data-source-line="25" data-uid="ent0006" id="entity_Content"><rect fill="#F1F1F1" height="129.4844" rx="2.5" ry="2.5" style="stroke:#181818;stroke-width:0.5;" width="154.7891" x="506.53" y="197.18"/><ellipse cx="551.8352" cy="213.18" fill="#ADD1B2" rx="11" ry="11" style="stroke:#181818;stroke-width:1;"/><path d="M554.8039,218.8206 Q554.2258,219.1175 553.5852,219.2581 Q552.9446,219.4144 552.2414,219.4144 Q549.7414,219.4144 548.4133,217.7737 Q547.1008,216.1175 547.1008,212.9925 Q547.1008,209.8675 548.4133,208.2112 Q549.7414,206.555 552.2414,206.555 Q552.9446,206.555 553.5852,206.7112 Q554.2414,206.8675 554.8039,207.1644 L554.8039,209.8831 Q554.1789,209.305 553.5852,209.0394 Q552.9914,208.7581 552.3664,208.7581 Q551.0227,208.7581 550.3352,209.8362 Q549.6477,210.8987 549.6477,212.9925 Q549.6477,215.0862 550.3352,216.1644 Q551.0227,217.2269 552.3664,217.2269 Q552.9914,217.2269 553.5852,216.9612 Q554.1789,216.68 554.8039,216.1019 L554.8039,218.8206 Z " fill="#000000"/><text fill="#000000" font-family="sans-serif" font-size="14" lengthAdjust="spacing" textLength="55.6787" x="572.3352" y="218.0267">Content</text><line style="stroke:#181818;stroke-width:0.5;" x1="507.53" x2="660.3191" y1="229.18" y2="229.18"/><ellipse cx="517.53" cy="242.8284" fill="none" rx="3" ry="3" style="stroke:#038048;stroke-width:1;"/><text fill="#000000" font-family="sans-serif" font-size="14" lengthAdjust="spacing" textLength="57.3467" x="526.53" y="246.1751">id: UUID</text><ellipse cx="517.53" cy="259.1253" fill="none" rx="3" ry="3" style="stroke:#038048;stroke-width:1;"/><text fill="#000000" font-family="sans-serif" font-size="14" lengthAdjust="spacing" textLength="78.3193" x="526.53" y="262.472">title: String</text><ellipse cx="517.53" cy="275.4222" fill="none" rx="3" ry="3" style="stroke:#038048;stroke-width:1;"/><text fill="#000000" font-family="sans-serif" font-size="14" lengthAdjust="spacing" textLength="128.7891" x="526.53" y="278.7689">description: String</text><ellipse cx="517.53" cy="291.7191" fill="none" rx="3" ry="3" style="stroke:#038048;stroke-width:1;"/><text fill="#000000" font-family="sans-serif" font-size="14" lengthAdjust="spacing" textLength="111.3301" x="526.53" y="295.0657">createdAt: Date</text><ellipse cx="517.53" cy="308.0159" fill="none" rx="3" ry="3" style="stroke:#038048;stroke-width:1;"/><text fill="#000000" font-family="sans-serif" font-size="14" lengthAdjust="spacing" textLength="115.9102" x="526.53" y="311.3626">updatedAt: Date</text><line style="stroke:#181818;stroke-width:0.5;" x1="507.53" x2="660.3191" y1="318.6644" y2="318.6644"/></g><!--class Blog--><g class="entity" data-entity="Blog" data-source-line="33" data-uid="ent0007" id="entity_Blog"><rect fill="#F1F1F1" height="80.5938" rx="2.5" ry="2.5" style="stroke:#181818;stroke-width:0.5;" width="155.1309" x="353.36" y="387.67"/><ellipse cx="411.2023" cy="403.67" fill="#ADD1B2" rx="11" ry="11" style="stroke:#181818;stroke-width:1;"/><path d="M414.171,409.3106 Q413.5929,409.6075 412.9523,409.7481 Q412.3117,409.9044 411.6085,409.9044 Q409.1085,409.9044 407.7804,408.2637 Q406.4679,406.6075 406.4679,403.4825 Q406.4679,400.3575 407.7804,398.7012 Q409.1085,397.045 411.6085,397.045 Q412.3117,397.045 412.9523,397.2012 Q413.6085,397.3575 414.171,397.6544 L414.171,400.3731 Q413.546,399.795 412.9523,399.5294 Q412.3585,399.2481 411.7335,399.2481 Q410.3898,399.2481 409.7023,400.3262 Q409.0148,401.3887 409.0148,403.4825 Q409.0148,405.5762 409.7023,406.6544 Q410.3898,407.7169 411.7335,407.7169 Q412.3585,407.7169 412.9523,407.4512 Q413.546,407.17 414.171,406.5919 L414.171,409.3106 Z " fill="#000000"/><text fill="#000000" font-family="sans-serif" font-size="14" lengthAdjust="spacing" textLength="30.9463" x="431.7023" y="408.5167">Blog</text><line style="stroke:#181818;stroke-width:0.5;" x1="354.36" x2="507.4909" y1="419.67" y2="419.67"/><ellipse cx="364.36" cy="433.3184" fill="none" rx="3" ry="3" style="stroke:#038048;stroke-width:1;"/><text fill="#000000" font-family="sans-serif" font-size="14" lengthAdjust="spacing" textLength="112.8203" x="373.36" y="436.6651">category: String</text><ellipse cx="364.36" cy="449.6153" fill="none" rx="3" ry="3" style="stroke:#038048;stroke-width:1;"/><text fill="#000000" font-family="sans-serif" font-size="14" lengthAdjust="spacing" textLength="129.1309" x="373.36" y="452.962">tags: List&lt;String&gt;</text><line style="stroke:#181818;stroke-width:0.5;" x1="354.36" x2="507.4909" y1="460.2637" y2="460.2637"/></g><!--class Event--><g class="entity" data-entity="Event" data-source-line="38" data-uid="ent0008" id="entity_Event"><rect fill="#F1F1F1" height="80.5938" rx="2.5" ry="2.5" style="stroke:#181818;stroke-width:0.5;" width="132.4971" x="543.68" y="387.67"/><ellipse cx="585.8558" cy="403.67" fill="#ADD1B2" rx="11" ry="11" style="stroke:#181818;stroke-width:1;"/><path d="M588.8245,409.3106 Q588.2464,409.6075 587.6058,409.7481 Q586.9652,409.9044 586.262,409.9044 Q583.762,409.9044 582.4339,408.2637 Q581.1214,406.6075 581.1214,403.4825 Q581.1214,400.3575 582.4339,398.7012 Q583.762,397.045 586.262,397.045 Q586.9652,397.045 587.6058,397.2012 Q588.262,397.3575 588.8245,397.6544 L588.8245,400.3731 Q588.1995,399.795 587.6058,399.5294 Q587.012,399.2481 586.387,399.2481 Q585.0433,399.2481 584.3558,400.3262 Q583.6683,401.3887 583.6683,403.4825 Q583.6683,405.5762 584.3558,406.6544 Q585.0433,407.7169 586.387,407.7169 Q587.012,407.7169 587.6058,407.4512 Q588.1995,407.17 588.8245,406.5919 L588.8245,409.3106 Z " fill="#000000"/><text fill="#000000" font-family="sans-serif" font-size="14" lengthAdjust="spacing" textLength="40.1064" x="605.8948" y="408.5167">Event</text><line style="stroke:#181818;stroke-width:0.5;" x1="544.68" x2="675.1771" y1="419.67" y2="419.67"/><ellipse cx="554.68" cy="433.3184" fill="none" rx="3" ry="3" style="stroke:#038048;stroke-width:1;"/><text fill="#000000" font-family="sans-serif" font-size="14" lengthAdjust="spacing" textLength="74.1973" x="563.68" y="436.6651">date: Date</text><ellipse cx="554.68" cy="449.6153" fill="none" rx="3" ry="3" style="stroke:#038048;stroke-width:1;"/><text fill="#000000" font-family="sans-serif" font-size="14" lengthAdjust="spacing" textLength="106.4971" x="563.68" y="452.962">location: String</text><line style="stroke:#181818;stroke-width:0.5;" x1="544.68" x2="675.1771" y1="460.2637" y2="460.2637"/></g><!--class Product--><g class="entity" data-entity="Product" data-source-line="43" data-uid="ent0009" id="entity_Product"><rect fill="#F1F1F1" height="80.5938" rx="2.5" ry="2.5" style="stroke:#181818;stroke-width:0.5;" width="104.5859" x="711.63" y="387.67"/><ellipse cx="735.1242" cy="403.67" fill="#ADD1B2" rx="11" ry="11" style="stroke:#181818;stroke-width:1;"/><path d="M738.0929,409.3106 Q737.5148,409.6075 736.8742,409.7481 Q736.2336,409.9044 735.5304,409.9044 Q733.0304,409.9044 731.7023,408.2637 Q730.3898,406.6075 730.3898,403.4825 Q730.3898,400.3575 731.7023,398.7012 Q733.0304,397.045 735.5304,397.045 Q736.2336,397.045 736.8742,397.2012 Q737.5304,397.3575 738.0929,397.6544 L738.0929,400.3731 Q737.4679,399.795 736.8742,399.5294 Q736.2804,399.2481 735.6554,399.2481 Q734.3117,399.2481 733.6242,400.3262 Q732.9367,401.3887 732.9367,403.4825 Q732.9367,405.5762 733.6242,406.6544 Q734.3117,407.7169 735.6554,407.7169 Q736.2804,407.7169 736.8742,407.4512 Q737.4679,407.17 738.0929,406.5919 L738.0929,409.3106 Z " fill="#000000"/><text fill="#000000" font-family="sans-serif" font-size="14" lengthAdjust="spacing" textLength="53.71" x="751.0118" y="408.5167">Product</text><line style="stroke:#181818;stroke-width:0.5;" x1="712.63" x2="815.2159" y1="419.67" y2="419.67"/><ellipse cx="722.63" cy="433.3184" fill="none" rx="3" ry="3" style="stroke:#038048;stroke-width:1;"/><text fill="#000000" font-family="sans-serif" font-size="14" lengthAdjust="spacing" textLength="78.5859" x="731.63" y="436.6651">price: Float</text><ellipse cx="722.63" cy="449.6153" fill="none" rx="3" ry="3" style="stroke:#038048;stroke-width:1;"/><text fill="#000000" font-family="sans-serif" font-size="14" lengthAdjust="spacing" textLength="64.8115" x="731.63" y="452.962">stock: Int</text><line style="stroke:#181818;stroke-width:0.5;" x1="712.63" x2="815.2159" y1="460.2637" y2="460.2637"/></g><!--reverse link User to Admin--><g class="link" data-entity-1="User" data-entity-2="Admin" data-source-line="48" data-uid="lnk10" id="link_User_Admin"><path codeLine="48" d="M219.487,339.2038 C197.947,359.6238 187.81,369.24 168.65,387.4 " fill="none" id="User-backto-Admin" style="stroke:#181818;stroke-width:1;"/><polygon fill="none" points="232.55,326.82,215.3591,334.8494,223.6149,343.5581,232.55,326.82" style="stroke:#181818;stroke-width:1;"/></g><!--reverse link User to Editor--><g class="link" data-entity-1="User" data-entity-2="Editor" data-source-line="49" data-uid="lnk11" id="link_User_Editor"><path codeLine="49" d="M294.9372,344.9712 C290.3472,397.3012 281.16,454.36 255.93,515.26 C251.66,525.57 245.4,535.86 238.98,544.97 " fill="none" id="User-backto-Editor" style="stroke:#181818;stroke-width:1;"/><polygon fill="none" points="296.51,327.04,288.9602,344.4469,300.9143,345.4954,296.51,327.04" style="stroke:#181818;stroke-width:1;"/></g><!--reverse link CMS_System to User--><g class="link" data-entity-1="CMS_System" data-entity-2="User" data-source-line="50" data-uid="lnk12" id="link_CMS_System_User"><path codeLine="50" d="M403.2841,130.0085 C384.4941,153.8085 369.91,172.28 350.48,196.89 " fill="none" id="CMS_System-backto-User" style="stroke:#181818;stroke-width:1;"/><polygon fill="none" points="410.72,120.59,403.8626,122.8206,403.2841,130.0085,410.1416,127.7779,410.72,120.59" style="stroke:#181818;stroke-width:1;"/><text fill="#000000" font-family="sans-serif" font-size="13" lengthAdjust="spacing" textLength="58.4111" x="387.93" y="163.2469">Manages</text></g><!--reverse link CMS_System to Content--><g class="link" data-entity-1="CMS_System" data-entity-2="Content" data-source-line="51" data-uid="lnk13" id="link_CMS_System_Content"><path codeLine="51" d="M498.3101,130.6185 C513.9501,154.4185 525.68,172.28 541.85,196.89 " fill="none" id="CMS_System-backto-Content" style="stroke:#181818;stroke-width:1;"/><polygon fill="none" points="491.72,120.59,491.6722,127.8009,498.3101,130.6185,498.3579,123.4075,491.72,120.59" style="stroke:#181818;stroke-width:1;"/><text fill="#000000" font-family="sans-serif" font-size="13" lengthAdjust="spacing" textLength="41.4185" x="520.93" y="163.2469">Stores</text></g><!--reverse link Content to Blog--><g class="link" data-entity-1="Content" data-entity-2="Blog" data-source-line="52" data-uid="lnk14" id="link_Content_Blog"><path codeLine="52" d="M512.0626,339.983 C492.9326,360.493 484.59,369.43 467.61,387.64 " fill="none" id="Content-backto-Blog" style="stroke:#181818;stroke-width:1;"/><polygon fill="none" points="524.34,326.82,507.6749,335.8906,516.4503,344.0755,524.34,326.82" style="stroke:#181818;stroke-width:1;"/></g><!--reverse link Content to Event--><g class="link" data-entity-1="Content" data-entity-2="Event" data-source-line="53" data-uid="lnk15" id="link_Content_Event"><path codeLine="53" d="M596.8756,344.5968 C600.1356,365.1068 600.81,369.43 603.69,387.64 " fill="none" id="Content-backto-Event" style="stroke:#181818;stroke-width:1;"/><polygon fill="none" points="594.05,326.82,590.95,345.5387,602.8012,343.655,594.05,326.82" style="stroke:#181818;stroke-width:1;"/></g><!--reverse link Content to Product--><g class="link" data-entity-1="Content" data-entity-2="Product" data-source-line="54" data-uid="lnk16" id="link_Content_Product"><path codeLine="54" d="M667.5951,339.1733 C689.8851,359.4833 700.55,369.21 720.38,387.28 " fill="none" id="Content-backto-Product" style="stroke:#181818;stroke-width:1;"/><polygon fill="none" points="654.29,327.05,663.5541,343.6083,671.6362,334.7382,654.29,327.05" style="stroke:#181818;stroke-width:1;"/></g><!--link Admin to Editor--><g class="link" data-entity-1="Admin" data-entity-2="Editor" data-source-line="55" data-uid="lnk17" id="link_Admin_Editor"><path codeLine="55" d="M149.97,468.48 C164,492.53 178.6584,517.6464 191.6984,540.0164 " fill="none" id="Admin-to-Editor" style="stroke:#181818;stroke-width:1;"/><polygon fill="#181818" points="194.72,545.2,193.6433,535.4102,192.202,540.8803,186.7318,539.439,194.72,545.2" style="stroke:#181818;stroke-width:1;"/><text fill="#000000" font-family="sans-serif" font-size="13" lengthAdjust="spacing" textLength="70.9668" x="176.93" y="511.3269">Can create</text></g><!--SRC=[XLFBQiCm4BpxAtHCQFm38WJI90L3GmiXvw9AmbLhIqPQfuIs_zwrP3cMar8V_9ZTsPtLZdd5d2D79otvoWXUTqfGSZmMs_2bMIqfEO1LkWo8h9cgKgZ16f_6YXIjJAdqR4x9oIYH_MGPzxtMebOwDkDMCf1T-rcBD-gLH8hF4BAIeuoYLtSfssNrfNT2WHa6gPbcfTmO3LB3Z8Sd9JrmfMkpFxmSpWva7Gkm5jumK_4eCHbzGQPZpuFyG7QevD_cFhDj13QOfCOv5mI3Z9AdrtV9uSR9_C6x7Y_4RsyP55IJDGlfk5KDAAFJG5YPMECqMtmPpt01XxRtw89XsHWfZJsdzO2LZf97vM0PuDM5lJkD97STnZqhWmN7yWRQipMYvGEniOeZyw4o38Rby0zA2WqToRj_-PtdmPkZxs2eR6GDWwYFKxBt_dBJQ3peJXPQ0ECzu2jsvv4YViOKwlLduLV9yrLqDXg8QH8sy0i0]--></g></svg>